<?xml version="1.0" standalone="no"?>
<!DOCTYPE svg PUBLIC "-//W3C//DTD SVG 20010904//EN"
 "http://www.w3.org/TR/2001/REC-SVG-20010904/DTD/svg10.dtd">
<svg version="1.0" xmlns="http://www.w3.org/2000/svg"
 width="1024.000000pt" height="1024.000000pt" viewBox="0 0 1024.000000 1024.000000"
 preserveAspectRatio="xMidYMid meet">
<metadata>
Created by potrace 1.14, written by Peter Selinger 2001-2017
</metadata>
<g transform="translate(0.000000,1024.000000) scale(0.100000,-0.100000)"
fill="#000000" stroke="none">
<path d="M1380 10229 c-452 -57 -858 -307 -1112 -684 -116 -172 -191 -352
-240 -575 l-23 -105 0 -3745 0 -3745 23 -105 c94 -428 321 -769 667 -1002 172
-116 352 -191 575 -240 l105 -23 3745 0 3745 0 105 23 c428 94 769 321 1002
667 116 172 191 352 240 575 l23 105 0 3745 0 3745 -23 105 c-79 357 -245 647
-504 876 -202 179 -442 299 -733 366 l-100 23 -3715 1 c-2043 1 -3744 -2
-3780 -7z m4535 -1573 c695 -76 1301 -246 1799 -504 70 -37 130 -72 132 -77 4
-9 -588 -1450 -599 -1462 -2 -2 -91 39 -198 91 -508 245 -972 382 -1451 427
-192 18 -591 7 -742 -20 -362 -65 -589 -217 -657 -442 -31 -102 -25 -251 14
-327 53 -106 129 -173 277 -247 209 -105 377 -151 1160 -321 866 -188 1345
-359 1733 -618 357 -239 602 -573 698 -955 48 -189 62 -326 56 -576 -5 -245
-18 -341 -74 -525 -186 -619 -628 -1089 -1304 -1389 -513 -227 -1160 -327
-1948 -300 -857 29 -1695 227 -2356 556 -148 74 -344 189 -351 207 -3 9 626
1439 640 1453 2 3 54 -25 115 -61 493 -293 1154 -521 1711 -591 419 -52 900
-31 1160 50 228 72 359 168 429 315 24 50 26 66 26 175 0 109 -2 125 -27 178
-68 145 -257 273 -552 371 -134 45 -459 127 -841 211 -805 178 -1211 312
-1600 530 -238 134 -411 271 -550 436 -284 339 -395 665 -395 1162 0 370 55
611 210 922 125 249 278 447 484 623 468 402 1108 648 1851 711 72 6 148 13
170 15 22 2 218 2 435 1 281 -2 438 -8 545 -19z"/>
</g>
</svg>
